<svg width="128" height="128" xmlns="http://www.w3.org/2000/svg">
 <title/>

 <g>
  <title>background</title>
  <rect fill="none" id="canvas_background" height="402" width="582" y="-1" x="-1"/>
 </g>
 <g>
  <title>Layer 1</title>
  <path fill="#ffffff" id="svg_1" d="m62.586361,27.414061a2.00025,2.00025 0 0 0 1.414066,0.585939l12.000061,0a2.00025,2.00025 0 0 0 1.414063,-0.585939l3.257629,-3.25757a7.00384,7.00384 0 1 0 -2.828178,-2.828121l-2.671638,2.671631l-10.343811,0l-6.828194,-6.828609l0,-13.171391l5.804871,0a2.03852,2.03852 0 0 0 0.584839,0.03857c17.804085,-0.66644 36.13868,7.39521 45.004028,23.96143l-6.688225,0a6.99831,6.99831 0 1 0 -8.705261,8.7052l0,18.2948l-15.000061,0a2.00011,2.00011 0 0 0 -2.000061,2l0,11l-4,0l0,-12a1.99935,1.99935 0 0 0 -0.698235,-1.518551l-6.301826,-5.401371l0,-13.080078l8.171944,0l2.671631,2.671631a7.00411,7.00411 0 1 0 2.828186,-2.828121l-3.257629,-3.257568a2.00025,2.00025 0 0 0 -1.41407,-0.585941l-11.000061,0a2.0001,2.0001 0 0 0 -1.999996,2l0,16a1.99935,1.99935 0 0 0 0.698238,1.518551l6.301758,5.401371l0,11.080078l-7.999996,0a2.00029,2.00029 0 0 0 -1.41412,0.585938l-16.000061,16a2.00025,2.00025 0 0 0 -0.585941,1.414063l0,16.2948a7.00006,7.00006 0 1 0 4,0l0,-15.466187l14.828239,-14.828613l36.172123,0a2.00059,2.00059 0 0 0 1.789055,-1.105469l6.000061,-12a2.00287,2.00287 0 0 0 0.210945,-0.894531l0,-7l8.806694,0l0,8.23584l-2.589897,5.667a2.00093,2.00093 0 0 0 -0.052727,1.534668l8.813538,23.450203a0.3001,0.3001 0 0 1 -0.033203,0.290001a0.17952,0.17952 0 0 1 -0.158195,0.094727l-8.589943,0a2.00049,2.00049 0 0 0 -1.895508,2.638672l2.375,7.049797l-4.649414,1.615723a1.99978,1.99978 0 0 0 -0.970695,3.052727l2.959,4.137703l-2.573242,2.037109a1.99953,1.99953 0 0 0 -0.758789,1.568359l0,5.141602a6.54083,6.54083 0 0 1 -3.167053,5.628914a6.07673,6.07673 0 0 1 -3.10157,0.856956c-8.366264,0 -40.414375,-10.51709 -40.414375,-28l0,-4.166496a2,2 0 0 0 -4,0l0,4.166496c0,21.334473 35.933846,32 44.414375,32a10.07527,10.07527 0 0 0 5.140694,-1.415527a10.55519,10.55519 0 0 0 5.12793,-9.070313l0,-4.173828l3.308647,-2.618652a2.00032,2.00032 0 0 0 0.385742,-2.731926l-2.51178,-3.512215l3.995178,-1.388176a2.00007,2.00007 0 0 0 1.239265,-2.527832l-2.119141,-6.289063l5.805656,0a4.20057,4.20057 0 0 0 3.451233,-1.822746a4.314,4.314 0 0 0 0.482422,-3.975105l-8.518623,-22.666l2.424797,-5.306637a2.00038,2.00038 0 0 0 0.180664,-0.831051l-0.001892,-10.623287c0.000374,-0.016243 0.004822,-0.031311 0.004822,-0.047611s-0.004463,-0.03149 -0.004822,-0.047791l-0.000061,-0.364319c-0.626999,-15.11377 -6.796936,-27.833502 -17.843864,-36.784182a54.852699,54.852699 0 0 0 -36.559982,-11.76327a2.01123,2.01123 0 0 0 -0.401184,-0.04047l-8.000057,0a2.0001,2.0001 0 0 0 -2,2l0,16a2.00025,2.00025 0 0 0 0.585941,1.414061l8.00005,8zm52.109501,19.585939l-10.69519,0a2.0001,2.0001 0 0 0 -2,2l0,8.527828l-5.236328,10.472172l-15.763794,0l0,-9l15.000061,0a2.00011,2.00011 0 0 0 2.000061,-2l0,-20.2948a7.02468,7.02468 0 0 0 4.7052,-4.7052l8.569,0a48.426479,48.426479 0 0 1 3.42099,15z"/>
  <path fill="#ffffff" id="svg_2" d="m9.00006,13.7052l0,17.2948a2.00093,2.00093 0 0 0 0.748,1.55957l11.000059,8.8335a2.00007,2.00007 0 0 0 0.252001,0.168758l0,21.438171a2.00162,2.00162 0 0 0 0.481449,1.301758l5.518621,6.438004l0,16.555038a7.00006,7.00006 0 1 0 4,0l0,-17.2948a2.00162,2.00162 0 0 0 -0.481451,-1.301758l-5.51862,-6.438004l0,-43.813999l10.00012,5.714361l0,4.134199a7.00006,7.00006 0 1 0 4,0l0,-5.2948a1.99982,1.99982 0 0 0 -1.007809,-1.73633l-14.000122,-8a1.99965,1.99965 0 0 0 -2.992189,1.73633l0,21.46545l-8.00006,-6.42445l0,-16.3358a7.00006,7.00006 0 1 0 -4,0z"/>
  <path fill="#ffffff" id="svg_3" d="m53.797066,31.828609l0,29.342781l-15.000118,14.999996l0,-14.466187a7.00006,7.00006 0 1 0 -4,0l0,19.2948a1.99979,1.99979 0 0 0 3.414059,1.414063l19.000118,-19.000004a2.00025,2.00025 0 0 0 0.585941,-1.414059l0,-31a2.00025,2.00025 0 0 0 -0.585941,-1.414061l-7.41412,-7.414549l0,-15.171391a2,2 0 0 0 -4,0l0,16a2.00025,2.00025 0 0 0 0.585941,1.414061l7.41412,7.414549z"/>
  <path fill="#ffffff" id="svg_4" d="m3,80a7.00006,7.00006 0 1 0 9.00006,-6.7052l0,-13.5896a7.00006,7.00006 0 1 0 -4,0l0,13.5896a7.00984,7.00984 0 0 0 -5.00006,6.7052z"/>
 </g>
</svg>